<svg aria-hidden="true" style="position: absolute; width: 0; height: 0; overflow: hidden;" version="1.1" xmlns="http://www.w3.org/2000/svg" xmlns:xlink="http://www.w3.org/1999/xlink">
<defs>
<symbol id="icon-youtube" viewBox="0 0 32 32">
<path fill="#f7f8fa" style="fill: var(--color1, #f7f8fa)" opacity="0.8" d="M24.239 5.999c-1.36-0.080-4.16-0.16-8.4-0.16h-0.56c-4.080 0-6.8 0.080-8.16 0.24-1.84 0.16-3.12 0.64-3.84 1.28-0.64 0.56-1.12 1.6-1.28 2.96-0.080 0.88-0.16 2.72-0.16 5.52v0.4c0 2.64 0.080 4.48 0.24 5.36 0.24 1.28 0.64 2.24 1.44 2.8 0.8 0.64 2.16 1.040 4.080 1.2 1.36 0.080 4.16 0.16 8.4 0.16h0.56c4.080 0 6.8-0.080 8.16-0.24 1.84-0.16 3.12-0.64 3.84-1.28 0.64-0.56 1.12-1.6 1.28-2.96 0.080-0.88 0.16-2.72 0.16-5.52v-0.4c0-2.64-0.080-4.48-0.24-5.36-0.24-1.28-0.64-2.24-1.44-2.8-0.8-0.64-2.16-1.040-4.080-1.2zM21.119 15.839l-8.8 5.28v-10.56l8.8 5.28z"></path>
</symbol>
<symbol id="icon-facebook" viewBox="0 0 32 32">
<path fill="#f7f8fa" style="fill: var(--color1, #f7f8fa)" d="M19.52 4.64c0.24 0 0.48 0 0.96 0v3.6c-0.24 0-0.72 0-1.2 0s-0.96 0-1.2 0.24c-0.24 0.24-0.24 0.48-0.24 1.040 0 0.48 0 0.8 0 1.28h2.64v3.040h-2.64v13.2h-4.080v-13.28h-2.16v-3.040h2.16v-1.040c0-1.76 0.24-3.040 0.72-3.6 0.72-1.040 2.16-1.52 4.32-1.52 0.24 0.080 0.48 0.080 0.72 0.080z"></path>
</symbol>
<symbol id="icon-instagram" viewBox="0 0 32 32">
<path fill="#f7f8fa" style="fill: var(--color1, #f7f8fa)" opacity="0.8" d="M28.718 10.756c-0.016-1.074-0.215-2.14-0.596-3.145-0.667-1.716-2.024-3.073-3.743-3.737-0.994-0.373-2.044-0.573-3.108-0.596-1.368-0.061-1.801-0.078-5.273-0.078s-3.916 0-5.274 0.078c-1.062 0.023-2.112 0.223-3.106 0.596-1.719 0.664-3.078 2.021-3.743 3.737-0.374 0.992-0.576 2.041-0.596 3.101-0.061 1.367-0.080 1.8-0.080 5.265s0 3.909 0.080 5.265c0.021 1.062 0.222 2.109 0.596 3.104 0.667 1.714 2.024 3.071 3.744 3.735 0.989 0.386 2.040 0.605 3.106 0.639 1.369 0.061 1.803 0.079 5.274 0.079s3.916 0 5.274-0.079c1.062-0.021 2.112-0.221 3.108-0.595 1.719-0.666 3.076-2.022 3.743-3.737 0.374-0.994 0.574-2.041 0.596-3.104 0.061-1.365 0.080-1.798 0.080-5.265-0.003-3.466-0.003-3.906-0.082-5.264zM15.991 22.531c-3.631 0-6.572-2.936-6.572-6.561s2.941-6.561 6.572-6.561c3.628 0 6.572 2.936 6.572 6.561s-2.944 6.561-6.572 6.561zM22.825 10.696c-0.849 0-1.533-0.684-1.533-1.53s0.684-1.53 1.533-1.53c0.846 0 1.531 0.684 1.531 1.53s-0.685 1.53-1.531 1.53z"></path>
<path fill="#f7f8fa" style="fill: var(--color1, #f7f8fa)" opacity="0.8" d="M15.993 19.976c2.211 0 4.004-1.793 4.004-4.004s-1.793-4.004-4.004-4.004c-2.211 0-4.004 1.793-4.004 4.004s1.793 4.004 4.004 4.004z"></path>
</symbol>
<symbol id="icon-logo-test" viewBox="0 0 32 32">
<path fill="#000" style="fill: var(--color2, #000)" d="M0 0h32v32h-32v-32z"></path>
<path fill="#59b17a" style="fill: var(--color3, #59b17a)" d="M0 0h32v32h-32v-32z"></path>
</symbol>
<symbol id="icon-products" viewBox="0 0 32 32">
<path stroke-linejoin="round" stroke-linecap="round" stroke-miterlimit="4" stroke-width="2.4" d="M20.573 17.143c5.681 0 10.286-2.047 10.286-4.571s-4.605-4.571-10.286-4.571c-5.681 0-10.286 2.047-10.286 4.571s4.605 4.571 10.286 4.571z"></path>
<path stroke-linejoin="round" stroke-linecap="round" stroke-miterlimit="4" stroke-width="2.4" d="M10.287 12.572v13.714c0 2.514 4.571 4.571 10.286 4.571s10.286-2.057 10.286-4.571v-13.714"></path>
<path stroke-linejoin="round" stroke-linecap="round" stroke-miterlimit="4" stroke-width="2.4" d="M30.858 19.429c0 2.514-4.572 4.571-10.286 4.571s-10.286-2.057-10.286-4.571M20.344 3.429c-2.671-1.648-5.78-2.445-8.914-2.286-5.691 0-10.286 2.057-10.286 4.571 0 1.349 1.326 2.56 3.429 3.429"></path>
<path stroke-linejoin="round" stroke-linecap="round" stroke-miterlimit="4" stroke-width="2.4" d="M4.572 22.859c-2.103-0.869-3.429-2.080-3.429-3.429v-13.714"></path>
<path stroke-linejoin="round" stroke-linecap="round" stroke-miterlimit="4" stroke-width="2.4" d="M4.572 16c-2.103-0.869-3.429-2.080-3.429-3.429"></path>
</symbol>
<symbol id="icon-search" viewBox="0 0 32 32">
<path stroke-linejoin="round" stroke-linecap="round" stroke-miterlimit="4" stroke-width="3" d="M14.667 25.333c5.891 0 10.667-4.776 10.667-10.667s-4.776-10.667-10.667-10.667c-5.891 0-10.667 4.776-10.667 10.667s4.776 10.667 10.667 10.667z"></path>
<path stroke-linejoin="round" stroke-linecap="round" stroke-miterlimit="4" stroke-width="3" d="M28 27.999l-5.8-5.8"></path>
</symbol>
<symbol id="icon-users" viewBox="0 0 32 32">
<path stroke-linejoin="round" stroke-linecap="round" stroke-miterlimit="4" stroke-width="2.4" d="M28 26.667c0-2.323-2.227-4.297-5.333-5.031M20 26.667c0-2.947-3.581-5.333-8-5.333s-8 2.387-8 5.333M20 17.334c1.415 0 2.771-0.562 3.771-1.562s1.562-2.357 1.562-3.771-0.562-2.771-1.562-3.771c-1-1-2.357-1.562-3.771-1.562M12 17.334c-1.415 0-2.771-0.562-3.771-1.562s-1.562-2.357-1.562-3.771 0.562-2.771 1.562-3.771c1-1 2.357-1.562 3.771-1.562s2.771 0.562 3.771 1.562c1 1 1.562 2.357 1.562 3.771s-0.562 2.771-1.562 3.771c-1 1-2.357 1.562-3.771 1.562z"></path>
</symbol>
<symbol id="icon-x-white" viewBox="0 0 32 32">
<path fill="none" stroke="#fff" style="stroke: var(--color4, #fff)" stroke-linejoin="round" stroke-linecap="round" stroke-miterlimit="4" stroke-width="2" d="M24 8l-16 16"></path>
<path fill="none" stroke="#fff" style="stroke: var(--color4, #fff)" stroke-linejoin="round" stroke-linecap="round" stroke-miterlimit="4" stroke-width="2" d="M8 8l16 16"></path>
</symbol>
<symbol id="icon-x" viewBox="0 0 32 32">
<path stroke-linejoin="round" stroke='#1D1E21' stroke-linecap="round" stroke-miterlimit="4" stroke-width="2.6667" d="M24 8l-16 16"></path>
<path stroke-linejoin="round" stroke='#1D1E21' stroke-linecap="round" stroke-miterlimit="4" stroke-width="2.6667" d="M8 8l16 16"></path>
</symbol>
<symbol id="icon-arrow" viewBox="0 0 53 32">
<path stroke-linejoin="round" stroke-linecap="round" stroke-miterlimit="4" stroke-width="8" d="M4 4l21.333 21.333 21.333-21.333"></path>
</symbol>
<symbol id="icon-filter" viewBox="0 0 37 32">
<path fill="none" stroke="#fff" style="stroke: var(--color4, #fff)" stroke-linejoin="round" stroke-linecap="round" stroke-miterlimit="4" stroke-width="4" d="M33.111 2h-31.111l12.444 14.716v10.173l6.222 3.111v-13.284l12.445-14.716z"></path>
</symbol>
<symbol id="icon-logo-desk" viewBox="0 0 125 32">
<path fill="#000" style="fill: var(--color2, #000)" d="M0 0h32v32h-32v-32z"></path>
<path fill="#59b17a" style="fill: var(--color3, #59b17a)" d="M0 0h32v32h-32v-32z"></path>
<path fill="#1d1e21" style="fill: var(--color5, #1d1e21)" d="M43.225 21.091v-10.579h6.88v1.606h-4.964v2.872h4.607v1.606h-4.607v2.887h5.005v1.606h-6.921zM56.35 15.032v1.539h-4.762v-1.539h4.762zM57.963 21.091v-10.579h3.967c0.813 0 1.495 0.152 2.045 0.455 0.554 0.303 0.973 0.72 1.255 1.25 0.286 0.527 0.429 1.126 0.429 1.798 0 0.678-0.143 1.281-0.429 1.808s-0.708 0.942-1.266 1.245c-0.558 0.3-1.245 0.449-2.061 0.449h-2.629v-1.575h2.371c0.475 0 0.864-0.083 1.167-0.248s0.527-0.393 0.672-0.682c0.148-0.289 0.222-0.622 0.222-0.997s-0.074-0.706-0.222-0.992c-0.145-0.286-0.37-0.508-0.677-0.666-0.303-0.162-0.694-0.243-1.172-0.243h-1.756v8.977h-1.916zM68.675 16.442v4.649h-1.87v-10.579h1.829v3.993h0.093c0.186-0.448 0.473-0.801 0.863-1.059 0.393-0.262 0.892-0.393 1.498-0.393 0.551 0 1.031 0.115 1.441 0.346s0.726 0.568 0.95 1.012c0.228 0.444 0.341 0.987 0.341 1.627v5.052h-1.87v-4.762c0-0.534-0.138-0.949-0.413-1.245-0.272-0.3-0.654-0.449-1.147-0.449-0.331 0-0.627 0.072-0.888 0.217-0.258 0.141-0.461 0.346-0.609 0.615-0.145 0.269-0.217 0.594-0.217 0.976zM77.572 21.251c-0.503 0-0.956-0.090-1.359-0.269-0.399-0.183-0.716-0.451-0.951-0.806-0.231-0.355-0.346-0.792-0.346-1.312 0-0.448 0.083-0.818 0.248-1.111s0.391-0.527 0.677-0.702 0.607-0.308 0.966-0.398c0.361-0.093 0.735-0.16 1.121-0.201 0.465-0.048 0.842-0.091 1.131-0.129 0.289-0.041 0.5-0.103 0.631-0.186 0.134-0.086 0.201-0.219 0.201-0.398v-0.031c0-0.389-0.116-0.69-0.346-0.904s-0.563-0.32-0.997-0.32c-0.458 0-0.821 0.1-1.089 0.3-0.265 0.2-0.444 0.436-0.537 0.708l-1.746-0.248c0.138-0.482 0.365-0.885 0.682-1.209 0.316-0.327 0.704-0.572 1.162-0.733 0.458-0.165 0.964-0.248 1.519-0.248 0.382 0 0.763 0.045 1.142 0.134s0.724 0.238 1.038 0.444c0.313 0.203 0.565 0.48 0.754 0.832 0.193 0.351 0.289 0.79 0.289 1.317v5.31h-1.798v-1.090h-0.062c-0.113 0.22-0.274 0.427-0.481 0.62-0.203 0.189-0.46 0.343-0.769 0.46-0.306 0.114-0.666 0.17-1.079 0.17zM78.057 19.877c0.376 0 0.701-0.074 0.977-0.222 0.276-0.152 0.487-0.351 0.635-0.599 0.152-0.248 0.228-0.518 0.228-0.811v-0.935c-0.059 0.048-0.159 0.093-0.3 0.134-0.138 0.041-0.293 0.077-0.465 0.108s-0.343 0.059-0.511 0.083c-0.169 0.024-0.316 0.045-0.439 0.062-0.279 0.038-0.529 0.1-0.749 0.186s-0.394 0.207-0.521 0.362c-0.127 0.152-0.191 0.348-0.191 0.589 0 0.344 0.126 0.604 0.377 0.78s0.572 0.263 0.961 0.263zM83.205 21.091v-7.934h1.813v1.322h0.082c0.145-0.458 0.393-0.811 0.744-1.059 0.355-0.251 0.759-0.377 1.214-0.377 0.103 0 0.219 0.005 0.346 0.015 0.131 0.007 0.239 0.019 0.326 0.036v1.72c-0.079-0.027-0.205-0.052-0.377-0.072-0.169-0.024-0.332-0.036-0.491-0.036-0.34 0-0.647 0.074-0.919 0.222-0.268 0.145-0.48 0.346-0.635 0.604s-0.233 0.556-0.233 0.894v4.664h-1.87zM88.536 21.091v-7.934h1.787v1.348h0.093c0.165-0.455 0.439-0.809 0.821-1.064 0.383-0.258 0.839-0.387 1.369-0.387 0.537 0 0.991 0.131 1.359 0.393 0.372 0.258 0.633 0.611 0.785 1.059h0.082c0.176-0.441 0.472-0.792 0.889-1.054 0.42-0.265 0.918-0.398 1.492-0.398 0.73 0 1.326 0.231 1.788 0.692s0.692 1.135 0.692 2.020v5.325h-1.876v-5.036c0-0.492-0.13-0.852-0.392-1.080-0.262-0.231-0.583-0.346-0.961-0.346-0.452 0-0.804 0.141-1.059 0.424-0.252 0.279-0.377 0.642-0.377 1.090v4.948h-1.833v-5.114c0-0.41-0.124-0.737-0.372-0.981-0.245-0.245-0.565-0.367-0.961-0.367-0.269 0-0.513 0.069-0.734 0.207-0.22 0.134-0.396 0.325-0.527 0.573-0.131 0.245-0.196 0.53-0.196 0.857v4.824h-1.87zM103.436 21.251c-0.503 0-0.956-0.090-1.359-0.269-0.399-0.183-0.716-0.451-0.951-0.806-0.231-0.355-0.345-0.792-0.345-1.312 0-0.448 0.082-0.818 0.247-1.111s0.391-0.527 0.677-0.702 0.608-0.308 0.966-0.398c0.361-0.093 0.735-0.16 1.121-0.201 0.465-0.048 0.842-0.091 1.132-0.129 0.289-0.041 0.499-0.103 0.63-0.186 0.135-0.086 0.201-0.219 0.201-0.398v-0.031c0-0.389-0.116-0.69-0.346-0.904s-0.563-0.32-0.997-0.32c-0.457 0-0.821 0.1-1.089 0.3-0.265 0.2-0.444 0.436-0.537 0.708l-1.745-0.248c0.137-0.482 0.365-0.885 0.681-1.209 0.317-0.327 0.704-0.572 1.162-0.733 0.458-0.165 0.964-0.248 1.519-0.248 0.383 0 0.763 0.045 1.142 0.134s0.724 0.238 1.038 0.444c0.313 0.203 0.565 0.48 0.754 0.832 0.193 0.351 0.289 0.79 0.289 1.317v5.31h-1.798v-1.090h-0.062c-0.113 0.22-0.273 0.427-0.48 0.62-0.204 0.189-0.46 0.343-0.77 0.46-0.306 0.114-0.666 0.17-1.079 0.17zM103.922 19.877c0.375 0 0.7-0.074 0.976-0.222 0.276-0.152 0.487-0.351 0.636-0.599 0.151-0.248 0.227-0.518 0.227-0.811v-0.935c-0.058 0.048-0.159 0.093-0.3 0.134-0.137 0.041-0.292 0.077-0.465 0.108s-0.343 0.059-0.511 0.083c-0.169 0.024-0.315 0.045-0.439 0.062-0.279 0.038-0.529 0.1-0.749 0.186s-0.394 0.207-0.521 0.362c-0.127 0.152-0.191 0.348-0.191 0.589 0 0.344 0.126 0.604 0.377 0.78s0.572 0.263 0.961 0.263zM112.53 21.246c-0.792 0-1.472-0.174-2.041-0.522-0.564-0.348-1-0.828-1.307-1.441-0.303-0.616-0.455-1.326-0.455-2.128 0-0.806 0.156-1.517 0.465-2.133 0.31-0.62 0.747-1.102 1.312-1.446 0.568-0.348 1.239-0.522 2.015-0.522 0.644 0 1.214 0.119 1.709 0.356 0.5 0.234 0.897 0.566 1.193 0.997 0.296 0.427 0.465 0.926 0.506 1.498h-1.787c-0.073-0.382-0.245-0.701-0.517-0.956-0.268-0.258-0.628-0.387-1.079-0.387-0.383 0-0.718 0.103-1.007 0.31-0.289 0.203-0.515 0.496-0.676 0.878-0.159 0.382-0.238 0.84-0.238 1.374 0 0.541 0.079 1.005 0.238 1.395 0.159 0.386 0.38 0.683 0.666 0.894 0.289 0.207 0.628 0.31 1.017 0.31 0.276 0 0.521-0.052 0.739-0.155 0.22-0.107 0.404-0.26 0.553-0.46s0.249-0.442 0.305-0.728h1.787c-0.044 0.561-0.21 1.059-0.496 1.493-0.286 0.43-0.675 0.768-1.167 1.012-0.492 0.241-1.071 0.362-1.735 0.362zM118.19 24.066c-0.255 0-0.49-0.021-0.708-0.062-0.213-0.038-0.384-0.083-0.511-0.134l0.434-1.457c0.272 0.079 0.515 0.117 0.728 0.114s0.401-0.071 0.563-0.201c0.166-0.127 0.305-0.341 0.419-0.64l0.16-0.429-2.877-8.099h1.983l1.828 5.992h0.083l1.833-5.992h1.989l-3.177 8.895c-0.148 0.42-0.345 0.78-0.589 1.080-0.244 0.303-0.544 0.534-0.899 0.692-0.351 0.162-0.771 0.243-1.26 0.243z"></path>
</symbol>
<symbol id="icon-map" viewBox="0 0 32 32">
<path fill="none" stroke="#59b17a" style="stroke: var(--color3, #59b17a)" stroke-linejoin="round" stroke-linecap="round" stroke-miterlimit="4" stroke-width="2.6667" d="M28 13.333c0 9.333-12 17.333-12 17.333s-12-8-12-17.333c0-3.183 1.264-6.235 3.515-8.485s5.303-3.515 8.485-3.515c3.183 0 6.235 1.264 8.485 3.515s3.515 5.303 3.515 8.485z"></path>
<path fill="none" stroke="#59b17a" style="stroke: var(--color3, #59b17a)" stroke-linejoin="round" stroke-linecap="round" stroke-miterlimit="4" stroke-width="2.6667" d="M16 17.333c2.209 0 4-1.791 4-4s-1.791-4-4-4c-2.209 0-4 1.791-4 4s1.791 4 4 4z"></path>
</symbol>
<symbol id="icon-menu" viewBox="0 0 39 32">
<path fill="none" stroke="#59b17a" style="stroke: var(--color3, #59b17a)" stroke-linejoin="round" stroke-linecap="round" stroke-miterlimit="4" stroke-width="2.4615" d="M34.877 16.255h-29.538"></path>
<path fill="none" stroke="#59b17a" style="stroke: var(--color3, #59b17a)" stroke-linejoin="round" stroke-linecap="round" stroke-miterlimit="4" stroke-width="2.4615" d="M34.877 9.855h-29.538"></path>
<path fill="none" stroke="#59b17a" style="stroke: var(--color3, #59b17a)" stroke-linejoin="round" stroke-linecap="round" stroke-miterlimit="4" stroke-width="2.4615" d="M34.877 22.655h-29.538"></path>
</symbol>
<symbol id="icon-mob-logo" viewBox="0 0 135 32">
    <path fill="#fff" d="M0 0h32v32h-32v-32z"></path>
    <path fill="#59b17a" d="M16 2.5c4.1 0 7.5 3.4 7.5 7.5 0 2.4-1.2 4.6-3 6l5.5 9.5h-5l-4-7-4 7h-5l5.5-9.5c-1.8-1.4-3-3.6-3-6 0-4.1 3.4-7.5 7.5-7.5z"></path>
    <path fill="#1d1e21" d="M45.1 21.5v-11.6h7.6v1.8h-5.5v3.2h5.1v1.8h-5.1v3.2h5.5v1.8h-7.6zM59.6 14.8v1.7h-5.2v-1.7h5.2zM61.4 21.5v-11.6h4.4c.9 0 1.6.2 2.3.5.6.3 1.1.8 1.4 1.4.3.6.5 1.2.5 2 0 .7-.2 1.4-.5 2s-.8 1-1.4 1.4c-.6.3-1.4.5-2.3.5h-2.9v-1.7h2.6c.5 0 1-.1 1.3-.3.3-.2.6-.4.7-.8.2-.3.2-.7.2-1.1s-.1-.8-.2-1.1c-.2-.3-.4-.6-.7-.7-.3-.2-.8-.3-1.3-.3h-1.9v9.9h-2.1zM73.1 16.4v5.1h-2.1v-11.6h2v4.4h.1c.2-.5.5-.9.9-1.2.4-.3 1-.4 1.6-.4.6 0 1.1.1 1.6.4s.8.6 1 1.1c.3.5.4 1.1.4 1.8v5.6h-2.1v-5.2c0-.6-.2-1-.5-1.4-.3-.3-.7-.5-1.3-.5-.4 0-.7.1-1 .2-.3.2-.5.4-.7.7-.2.3-.2.7-.2 1.1zM82.9 21.7c-.6 0-1.1-.1-1.5-.3-.4-.2-.8-.5-1.1-.9-.3-.4-.4-.9-.4-1.4 0-.5.1-.9.3-1.2s.4-.6.7-.8.7-.3 1.1-.4c.4-.1.8-.2 1.2-.2.5-.1.9-.1 1.2-.1.3 0 .5-.1.7-.2.1-.1.2-.2.2-.4v0c0-.4-.1-.8-.4-1s-.6-.4-1.1-.4c-.5 0-.9.1-1.2.3-.3.2-.5.5-.6.8l-1.9-.3c.2-.5.4-1 .8-1.3.3-.4.8-.6 1.3-.8.5-.2 1.1-.3 1.7-.3.4 0 .8 0 1.3.1s.8.3 1.1.5c.3.2.6.5.8.9.2.4.3.9.3 1.4v5.8h-2v-1.2h-.1c-.1.2-.3.5-.5.7-.2.2-.5.4-.8.5-.3.1-.7.2-1.2.2zM83.5 20.2c.4 0 .8-.1 1.1-.2.3-.2.5-.4.7-.7.2-.3.3-.6.3-.9v-1c-.1.1-.2.1-.3.1-.2 0-.3.1-.5.1s-.4.1-.6.1c-.2 0-.3 0-.5.1-.3 0-.6.1-.8.2-.2.1-.4.2-.6.4-.1.2-.2.4-.2.6 0 .4.1.7.4.9s.6.3 1.1.3zM89.1 21.5v-8.7h2v1.5h.1c.2-.5.4-.9.8-1.2.4-.3.8-.4 1.3-.4.1 0 .2 0 .4 0 .1 0 .3 0 .4 0v1.9c-.1 0-.2-.1-.4-.1-.2 0-.4 0-.5 0-.4 0-.7.1-1 .2-.3.2-.5.4-.7.7s-.3.6-.3 1v5.1h-2.1zM95 21.5v-8.7h2v1.5h.1c.2-.5.5-.9.9-1.2.4-.3.9-.4 1.5-.4.6 0 1.1.1 1.5.4.4.3.7.7.9 1.2h.1c.2-.5.5-.9 1-1.2.5-.3 1-.4 1.6-.4.8 0 1.5.3 2 .8s.8 1.2.8 2.2v5.9h-2.1v-5.5c0-.5-.1-.9-.4-1.2-.3-.3-.6-.4-1.1-.4-.5 0-.9.2-1.2.5-.3.3-.4.7-.4 1.2v5.4h-2v-5.6c0-.5-.1-.8-.4-1.1-.3-.3-.6-.4-1.1-.4-.3 0-.6.1-.8.2-.2.1-.4.4-.6.6-.1.3-.2.6-.2 .9v5.3h-2.1zM111.4 21.7c-.6 0-1.1-.1-1.5-.3-.4-.2-.8-.5-1.1-.9-.3-.4-.4-.9-.4-1.4 0-.5.1-.9.3-1.2s.4-.6.7-.8.7-.3 1.1-.4c.4-.1.8-.2 1.2-.2.5-.1.9-.1 1.2-.1.3 0 .5-.1.7-.2.1-.1.2-.2.2-.4v0c0-.4-.1-.8-.4-1s-.6-.4-1.1-.4c-.5 0-.9.1-1.2.3-.3.2-.5.5-.6.8l-1.9-.3c.2-.5.4-1 .8-1.3.3-.4.8-.6 1.3-.8.5-.2 1.1-.3 1.7-.3.4 0 .8 0 1.3.1s.8.3 1.1.5c.3.2.6.5.8.9.2.4.3.9.3 1.4v5.8h-2v-1.2h-.1c-.1.2-.3.5-.5.7-.2.2-.5.4-.8.5-.3.1-.7.2-1.2.2zM111.9 20.2c.4 0 .8-.1 1.1-.2.3-.2.5-.4.7-.7.2-.3.3-.6.3-.9v-1c-.1.1-.2.1-.3.1-.2 0-.3.1-.5.1s-.4.1-.6.1c-.2 0-.3 0-.5.1-.3 0-.6.1-.8.2-.2.1-.4.2-.6.4-.1.2-.2.4-.2.6 0 .4.1.7.4.9.3.2.6.3 1.1.3zM121.4 21.7c-.9 0-1.6-.2-2.2-.6-.6-.4-1.1-.9-1.4-1.6-.3-.7-.5-1.5-.5-2.3 0-.9.2-1.7.5-2.3.3-.7.8-1.2 1.4-1.6.6-.4 1.4-.6 2.2-.6.7 0 1.3.1 1.9.4.6.3 1 .6 1.3 1.1.3.5.5 1 .6 1.6h-2c-.1-.4-.3-.8-.6-1.1-.3-.3-.7-.4-1.2-.4-.4 0-.8.1-1.1.3-.3.2-.6.5-.7 1-.2.4-.3.9-.3 1.5 0 .6.1 1.1.3 1.5.2.4.4.8.7 1 .3.2.7.3 1.1.3.3 0 .6-.1.8-.2.2-.1.4-.3.6-.5.2-.2.3-.5.3-.8h2c-.1.6-.2 1.2-.5 1.6-.3.5-.7.8-1.3 1.1-.5.3-1.2.4-1.9.4zM127.6 24.8c-.3 0-.5 0-.8-.1-.2 0-.4-.1-.6-.1l.5-1.6c.3.1.6.1.8.1s.4-.1.6-.2c.2-.1.3-.4.5-.7l.2-.5-3.2-8.9h2.2l2 6.6h.1l2-6.6h2.2l-3.5 9.8c-.2.5-.4.9-.6 1.2-.3.3-.6.6-1 .8-.4.2-.8.3-1.4.3z"></path>
  </symbol>
<symbol id="icon-phone" viewBox="0 0 32 32">
<path fill="none" stroke="#59b17a" style="stroke: var(--color3, #59b17a)" stroke-linejoin="round" stroke-linecap="round" stroke-miterlimit="4" stroke-width="2.6667" d="M29.33 22.56v4c0.002 0.371-0.075 0.739-0.223 1.079s-0.367 0.646-0.641 0.897c-0.274 0.251-0.597 0.442-0.948 0.561s-0.725 0.163-1.094 0.13c-4.103-0.446-8.044-1.848-11.507-4.093-3.222-2.047-5.953-4.779-8-8-2.253-3.478-3.656-7.439-4.093-11.56-0.033-0.369 0.010-0.74 0.129-1.091s0.308-0.673 0.558-0.947c0.25-0.273 0.553-0.492 0.892-0.641s0.705-0.227 1.075-0.227h4c0.647-0.006 1.274 0.223 1.765 0.645s0.811 1.008 0.902 1.649c0.169 1.28 0.482 2.537 0.933 3.747 0.179 0.477 0.218 0.996 0.112 1.495s-0.353 0.956-0.712 1.319l-1.693 1.693c1.898 3.338 4.662 6.102 8 8l1.693-1.693c0.363-0.359 0.82-0.605 1.319-0.712s1.017-0.067 1.494 0.112c1.21 0.451 2.467 0.764 3.747 0.933 0.648 0.091 1.239 0.418 1.662 0.917s0.647 1.136 0.631 1.79z"></path>
</symbol>
<symbol id="icon-pin" viewBox="0 0 32 32">
<path fill="#59b17a" style="fill: var(--color3, #59b17a)" d="M29.419 19.083l-16.875-16.875c-2.813-2.925-7.425-2.925-10.35-0.112s-2.925 7.538 0 10.35l0.112 0.113 3.15 3.262 1.575-1.575-3.262-3.262c-1.913-1.912-1.913-5.175 0-7.088s5.175-2.025 7.087-0.112l16.875 16.875c2.025 1.913 2.025 5.175 0.113 7.088-1.913 2.025-5.175 2.025-7.088 0.112l-8.437-8.437c-1.125-1.125-1.012-2.925 0-3.938 0.539-0.489 1.241-0.759 1.969-0.759s1.429 0.271 1.969 0.759l4.613 4.613 1.575-1.575-4.725-4.725c-0.479-0.453-1.043-0.807-1.659-1.041s-1.273-0.344-1.932-0.323c-0.659 0.021-1.307 0.172-1.907 0.445s-1.14 0.661-1.59 1.144c-1.8 1.912-1.8 4.95 0 6.975l8.438 8.437c2.812 2.925 7.425 2.925 10.35 0.113s2.925-7.538 0-10.463c0 0 0 0.113 0 0v0z"></path>
</symbol>
</defs>
</svg>
